<svg width="48" height="46" viewBox="0 0 48 46" fill="none" xmlns="http://www.w3.org/2000/svg">
<g clip-path="url(#clip0_26_2)">
<path d="M28.6526 16.9564L26.9204 9.14619C26.8441 8.80387 26.6791 8.48762 26.442 8.22918C26.2049 7.97074 25.904 7.7792 25.5695 7.67376L17.8695 5.28433C17.5347 5.17879 17.1779 5.16325 16.8352 5.23926C16.4925 5.31528 16.1758 5.48017 15.9169 5.71738L9.9491 11.1382C9.69054 11.3751 9.49884 11.6759 9.39323 12.0104C9.28763 12.3448 9.27182 12.7012 9.34741 13.0436L11.0796 20.8539C11.1559 21.1962 11.3209 21.5124 11.558 21.7709C11.7951 22.0293 12.096 22.2209 12.4305 22.3263L20.1305 24.7157C20.4654 24.8213 20.8221 24.8368 21.1648 24.7608C21.5076 24.6848 21.8243 24.5199 22.0831 24.2827L28.0509 18.8619C28.3095 18.6249 28.5012 18.3241 28.6068 17.9897C28.7124 17.6552 28.7282 17.2989 28.6526 16.9564Z" stroke="white" stroke-width="2" stroke-linecap="round" stroke-linejoin="round"/>
<path d="M9.38586 11.9699L19.0022 15.0098L26.4317 8.18933" stroke="white" stroke-width="2" stroke-linecap="round" stroke-linejoin="round"/>
<path d="M21.1826 24.8409L19 15" stroke="white" stroke-width="2" stroke-linecap="round" stroke-linejoin="round"/>
</g>
<g clip-path="url(#clip1_26_2)">
<path d="M38.7037 32.2153L41.8479 24.8591C41.9854 24.5365 42.0357 24.1833 41.9936 23.8351C41.9515 23.4869 41.8187 23.1559 41.6083 22.8753L36.7437 16.446C36.5331 16.1651 36.2523 15.9446 35.9295 15.8066C35.6067 15.6686 35.2532 15.618 34.9047 15.66L26.8959 16.5869C26.5476 16.6288 26.2166 16.7615 25.9358 16.9717C25.6551 17.1819 25.4346 17.4623 25.2964 17.7846L22.1522 25.1409C22.0147 25.4635 21.9644 25.8166 22.0065 26.1648C22.0485 26.513 22.1814 26.844 22.3918 27.1247L27.2564 33.554C27.4669 33.8349 27.7478 34.0554 28.0706 34.1934C28.3934 34.3314 28.7469 34.3819 29.0954 34.34L37.1042 33.4131C37.4524 33.3712 37.7835 33.2385 38.0642 33.0283C38.345 32.818 38.5655 32.5377 38.7037 32.2153Z" stroke="white" stroke-width="2" stroke-linecap="round" stroke-linejoin="round"/>
<path d="M25.9534 16.9344L31.9961 25.0092L42.0083 23.7967" stroke="white" stroke-width="2" stroke-linecap="round" stroke-linejoin="round"/>
<path d="M28.0383 34.2688L32 25" stroke="white" stroke-width="2" stroke-linecap="round" stroke-linejoin="round"/>
</g>
<g clip-path="url(#clip2_26_2)">
<path d="M22.9929 36.9353L25.8338 29.4567C25.958 29.1287 25.9938 28.7738 25.9376 28.4276C25.8813 28.0815 25.735 27.7562 25.5133 27.4844L20.39 21.2593C20.1681 20.9872 19.8785 20.7784 19.5503 20.6537C19.2221 20.529 18.8669 20.493 18.5203 20.5491L10.5561 21.8026C10.2099 21.8587 9.88454 22.0048 9.61263 22.2263C9.34073 22.4479 9.13186 22.737 9.00697 23.0647L6.1661 30.5433C6.04189 30.8713 6.00611 31.2262 6.06236 31.5724C6.11862 31.9186 6.26491 32.2439 6.48658 32.5157L11.6099 38.7408C11.8318 39.0128 12.1214 39.2217 12.4496 39.3464C12.7778 39.471 13.133 39.5071 13.4796 39.451L21.4438 38.1975C21.79 38.1414 22.1154 37.9953 22.3873 37.7737C22.6592 37.5522 22.8681 37.2631 22.9929 36.9353Z" stroke="white" stroke-width="2" stroke-linecap="round" stroke-linejoin="round"/>
<path d="M9.62872 22.1884L15.9964 30.0094L25.9508 28.3886" stroke="white" stroke-width="2" stroke-linecap="round" stroke-linejoin="round"/>
<path d="M12.4205 39.4231L16 30" stroke="white" stroke-width="2" stroke-linecap="round" stroke-linejoin="round"/>
</g>
<defs>
<clipPath id="clip0_26_2">
<rect width="24" height="24" fill="white" transform="translate(4.6864 5.88301) rotate(-12.505)"/>
</clipPath>
<clipPath id="clip1_26_2">
<rect width="24" height="24" fill="white" transform="translate(25.682 9.24934) rotate(23.1429)"/>
</clipPath>
<clipPath id="clip2_26_2">
<rect width="24" height="24" fill="white" transform="translate(9.0434 14.5208) rotate(20.8002)"/>
</clipPath>
</defs>
</svg>
